<?xml version="1.0" standalone="no"?>
<!DOCTYPE svg PUBLIC "-//W3C//DTD SVG 20010904//EN"
 "http://www.w3.org/TR/2001/REC-SVG-20010904/DTD/svg10.dtd">
<svg version="1.0" xmlns="http://www.w3.org/2000/svg"
 width="1800.000000pt" height="810.000000pt" viewBox="0 0 1800.000000 810.000000"
 preserveAspectRatio="xMidYMid meet">

<g transform="translate(0.000000,810.000000) scale(0.100000,-0.100000)"
fill="#000000" stroke="none">
<path d="M3287 6303 c-4 -3 -22 -8 -40 -9 -17 -1 -69 -5 -115 -8 -150 -11
-417 -63 -572 -111 -331 -102 -567 -219 -804 -398 -109 -81 -348 -323 -418
-422 -127 -180 -224 -415 -268 -650 -6 -33 -15 -78 -20 -100 -18 -73 -59 -517
-65 -700 -4 -99 -10 -232 -16 -295 -11 -148 -11 -661 0 -810 5 -63 12 -198 16
-300 8 -282 39 -498 81 -582 26 -52 59 -81 112 -100 53 -19 2308 -19 2597 0
509 33 649 60 811 158 216 130 363 345 483 702 115 347 121 609 20 919 -55
168 -125 258 -274 354 -138 89 -180 123 -199 164 l-18 37 38 55 c21 30 84 104
140 164 164 175 201 281 211 599 4 146 1 197 -16 308 -72 462 -283 751 -653
892 -157 60 -451 115 -645 122 -40 1 -73 6 -73 10 0 10 -304 11 -313 1z m491
-143 c590 -64 872 -250 1018 -674 47 -137 65 -265 65 -471 0 -302 -31 -403
-170 -548 -161 -169 -211 -246 -211 -323 0 -96 53 -160 219 -269 70 -45 143
-101 165 -125 53 -59 110 -185 142 -315 23 -95 27 -131 27 -260 0 -129 -4
-165 -27 -258 -132 -540 -354 -832 -693 -916 -79 -19 -162 -30 -403 -51 -361
-31 -2646 -42 -2697 -12 -38 21 -58 76 -78 217 -48 334 -51 1711 -5 2085 5 41
14 120 20 175 12 106 50 312 76 404 69 250 170 428 356 626 300 319 665 524
1143 644 113 28 322 66 410 74 95 9 554 6 643 -3z"/>
<path d="M2700 5654 c-315 -48 -551 -156 -731 -334 -169 -168 -232 -352 -248
-730 -12 -266 -15 -275 -175 -440 -132 -136 -176 -206 -176 -277 0 -56 21 -78
126 -132 107 -55 114 -73 64 -149 -25 -38 -30 -55 -28 -92 3 -38 8 -48 36 -66
18 -13 38 -24 45 -27 7 -2 2 -16 -16 -36 -46 -55 -30 -106 52 -162 29 -19 51
-42 51 -52 0 -10 -16 -57 -36 -105 -32 -77 -36 -95 -32 -154 5 -85 38 -132
119 -165 73 -30 248 -31 429 -3 173 27 311 41 337 34 32 -9 43 -53 53 -206 8
-127 19 -179 54 -246 35 -67 -27 -62 779 -62 406 0 738 4 746 9 21 14 10 50
-80 252 -229 516 -257 649 -175 812 20 40 92 149 161 242 177 241 253 401 304
640 65 307 10 642 -144 885 -63 99 -224 257 -335 330 -276 180 -537 251 -911
249 -96 -1 -217 -7 -269 -15z m438 -55 c738 -80 1186 -507 1186 -1129 0 -182
-27 -321 -97 -500 -39 -101 -103 -205 -241 -390 -64 -85 -133 -189 -154 -230
-36 -72 -37 -79 -36 -175 0 -131 33 -246 142 -505 36 -85 80 -191 99 -235 18
-43 33 -87 33 -97 0 -17 -34 -18 -689 -18 l-689 0 -14 23 c-28 43 -39 94 -53
250 -15 168 -22 192 -72 224 -39 26 -147 21 -347 -16 -264 -49 -408 -41 -479
25 -55 51 -55 87 0 219 17 39 33 87 37 108 6 34 4 41 -27 70 -18 18 -49 44
-68 59 -33 26 -34 26 -14 42 11 8 27 16 36 16 28 0 69 40 69 66 0 32 -46 60
-112 69 -58 8 -66 22 -43 67 52 99 57 111 51 143 -8 42 -31 62 -119 105 -149
73 -144 111 41 304 74 76 139 155 156 186 29 53 30 60 38 250 14 358 55 517
173 670 70 90 176 178 298 245 234 129 582 189 895 154z"/>
<path d="M2770 5005 l0 -175 -46 0 c-37 0 -51 -5 -75 -29 -17 -17 -29 -40 -29
-55 l0 -26 -180 0 -180 0 0 -25 0 -25 180 0 180 0 0 -55 0 -55 -180 0 -180 0
0 -25 0 -25 180 0 180 0 0 -55 0 -55 -180 0 -180 0 0 -25 0 -25 180 0 180 0 0
-55 0 -55 -180 0 -180 0 0 -25 0 -25 180 0 180 0 0 -24 c0 -43 41 -79 96 -85
l49 -6 3 -172 2 -173 25 0 25 0 0 175 0 175 50 0 50 0 2 -172 3 -173 23 0 23
0 2 170 2 170 52 3 53 3 2 -173 c3 -170 3 -173 25 -176 22 -3 23 -3 25 170 l3
173 52 3 53 3 2 -173 3 -173 23 0 23 0 2 170 2 170 49 6 c55 6 96 42 96 84 l0
25 183 2 c180 3 182 3 185 25 3 23 3 23 -180 25 l-183 3 -3 53 -3 52 186 0
186 0 -3 23 c-3 22 -5 22 -185 25 l-183 2 0 55 0 55 183 2 c174 3 182 4 182
23 0 19 -8 20 -182 23 l-183 2 0 55 0 55 183 2 c174 3 182 4 182 23 0 19 -8
20 -182 23 l-183 2 0 25 c0 42 -41 78 -96 84 l-49 6 -3 173 c-2 173 -3 173
-25 170 -22 -3 -22 -5 -24 -173 l-2 -170 -53 0 -53 0 -3 173 c-2 173 -3 173
-25 170 -22 -3 -22 -6 -25 -176 l-2 -173 -53 3 -52 3 -3 173 c-2 173 -3 173
-25 170 -22 -3 -22 -5 -24 -173 l-2 -170 -50 -3 -51 -3 0 175 0 176 -25 0 -25
0 0 -175z m617 -231 l23 -23 0 -296 c0 -295 0 -296 -23 -319 l-23 -23 -338 1
-338 1 -19 24 c-18 22 -19 43 -19 318 l0 294 23 23 23 23 334 0 334 0 23 -23z"/>
<path d="M2779 4741 l-24 -19 0 -265 c0 -246 1 -266 19 -286 18 -20 28 -21
256 -21 217 0 238 2 253 18 15 16 17 51 17 290 0 269 0 271 -22 286 -19 13
-60 16 -249 16 -208 0 -229 -2 -250 -19z m479 -23 c9 -9 12 -81 12 -265 0
-239 -1 -253 -19 -263 -12 -6 -101 -10 -221 -10 -120 0 -209 4 -221 10 -18 10
-19 24 -19 265 0 231 2 255 18 264 26 15 435 14 450 -1z"/>
<path d="M15055 4965 c-83 -17 -111 -30 -164 -74 -70 -59 -95 -117 -99 -227
-3 -77 -1 -97 18 -137 35 -74 85 -112 187 -142 48 -14 98 -30 111 -35 13 -6
33 -10 45 -10 44 0 193 -44 223 -66 46 -34 56 -72 34 -121 -23 -52 -55 -71
-144 -85 -111 -17 -209 2 -253 49 -18 19 -36 46 -40 61 -9 38 -18 42 -111 42
-97 0 -100 -3 -78 -85 29 -112 104 -186 231 -227 99 -32 273 -33 361 -1 86 31
127 57 169 108 86 106 87 284 2 373 -50 52 -139 92 -237 107 -25 4 -58 10 -75
15 -38 11 -98 27 -154 41 -131 32 -149 169 -31 229 55 28 180 28 237 0 46 -22
90 -69 99 -106 3 -13 10 -24 15 -24 72 -5 163 0 172 9 20 20 -40 149 -95 204
-96 96 -260 136 -423 102z"/>
<path d="M6328 4934 c-10 -9 -11 -958 -2 -1003 l7 -32 276 4 c295 5 350 11
428 50 105 54 166 207 132 332 -8 29 -29 58 -76 103 l-65 63 45 42 c56 52 72
103 64 203 -6 83 -20 115 -74 165 -77 74 -73 73 -418 77 -170 2 -313 0 -317
-4z m491 -172 c107 -41 113 -150 11 -202 -36 -18 -56 -20 -193 -18 l-152 3 -3
105 c-2 90 0 107 15 117 27 20 266 16 322 -5z m16 -472 c53 -26 70 -56 62
-112 -11 -83 -73 -108 -270 -108 -114 0 -136 2 -141 16 -8 21 -8 209 1 217 3
4 74 7 157 7 129 0 155 -3 191 -20z"/>
<path d="M7525 4933 c-6 -5 -10 -189 -10 -515 l0 -508 93 0 92 0 0 178 c0 125
4 182 12 190 8 8 60 12 168 12 l156 0 30 -28 c41 -38 51 -75 57 -215 3 -70 10
-124 17 -133 9 -10 37 -14 111 -14 54 0 101 4 104 10 3 5 -2 21 -12 36 -13 20
-19 59 -24 154 -8 151 -27 206 -83 242 -20 13 -36 30 -36 38 1 8 20 27 44 41
64 39 98 116 98 220 0 85 -19 140 -65 195 -36 43 -98 83 -138 91 -51 9 -603
15 -614 6z m563 -191 c86 -62 82 -210 -8 -261 -34 -19 -54 -21 -193 -21 -128
0 -158 3 -171 16 -13 12 -16 40 -16 137 0 67 4 127 8 133 13 21 37 23 192 21
145 -2 157 -4 188 -25z"/>
<path d="M9003 4928 c-11 -15 -46 -109 -101 -273 -22 -66 -61 -178 -87 -250
-26 -71 -50 -141 -55 -155 -5 -14 -33 -96 -63 -182 -31 -86 -53 -159 -49 -162
3 -3 47 -6 98 -6 l93 0 27 88 c15 48 34 95 42 105 13 15 36 17 206 17 105 0
197 -4 204 -8 7 -5 21 -40 32 -78 37 -134 25 -124 138 -124 54 0 101 3 104 6
4 3 -16 69 -44 147 -77 219 -80 230 -89 262 -4 17 -24 75 -44 130 -20 55 -60
168 -89 250 -30 83 -58 163 -65 178 -6 16 -11 34 -11 42 0 20 -24 25 -135 25
-70 0 -105 -4 -112 -12z m157 -330 c24 -78 61 -192 87 -271 11 -35 12 -52 5
-59 -14 -14 -252 -12 -266 2 -9 9 8 79 39 160 7 19 25 73 40 120 48 148 61
155 95 48z"/>
<path d="M9875 4928 c-3 -7 -4 -240 -3 -518 l3 -505 95 0 95 0 0 515 0 515
-93 3 c-68 2 -94 -1 -97 -10z"/>
<path d="M11102 4932 c-9 -6 -13 -89 -15 -354 -1 -191 -6 -350 -10 -354 -14
-15 -45 32 -183 276 -75 135 -162 287 -191 338 l-54 92 -110 0 -109 0 2 -512
3 -513 89 0 89 0 1 357 c0 196 5 360 9 364 16 16 40 -14 96 -121 73 -139 195
-354 216 -380 9 -11 41 -63 72 -117 l56 -96 89 -7 c62 -5 93 -4 101 4 8 8 10
153 8 513 -1 277 -5 506 -7 510 -7 10 -135 10 -152 0z"/>
<path d="M11912 4913 c-39 -104 -65 -173 -76 -208 -8 -22 -32 -92 -55 -155
-23 -63 -60 -169 -83 -235 -22 -66 -44 -124 -48 -130 -4 -5 -22 -55 -40 -110
-18 -55 -36 -104 -41 -110 -5 -5 -9 -22 -9 -37 l0 -28 100 0 99 0 20 64 c11
36 29 83 40 105 19 37 24 40 77 47 67 8 325 -4 338 -16 5 -5 23 -51 40 -102
l31 -93 94 -3 c52 -1 100 -1 106 2 15 5 -158 525 -226 681 -5 11 -19 52 -32
90 -13 39 -39 114 -57 168 l-34 97 -117 0 -117 0 -10 -27z m172 -350 c21 -65
48 -148 61 -186 16 -48 19 -70 11 -75 -6 -3 -58 -8 -116 -10 -131 -4 -146 3
-125 63 8 22 16 53 19 68 2 15 9 33 14 40 5 7 22 53 37 102 27 87 40 115 54
115 4 0 24 -53 45 -117z"/>
<path d="M12835 4928 c-3 -7 -4 -240 -3 -518 l3 -505 350 0 350 0 0 85 0 85
-247 0 c-157 0 -251 4 -257 10 -7 7 -12 156 -13 430 l-3 420 -88 3 c-64 2 -89
-1 -92 -10z"/>
<path d="M13645 4918 c4 -13 13 -32 20 -43 27 -44 167 -298 239 -434 l76 -145
0 -175 c0 -97 3 -186 6 -199 6 -22 10 -23 98 -20 l91 3 5 195 5 195 64 115
c94 168 153 278 185 340 15 30 43 82 61 115 19 33 34 63 35 68 0 4 -51 7 -114
7 -110 0 -115 -1 -121 -22 -9 -28 -16 -45 -107 -238 -88 -186 -93 -195 -106
-186 -8 5 -101 189 -195 389 l-27 57 -111 0 c-110 0 -110 0 -104 -22z"/>
<path d="M15850 4855 l0 -85 143 0 c78 0 149 -5 157 -10 12 -8 15 -38 15 -172
0 -90 1 -279 3 -420 l2 -258 89 0 c74 0 90 3 95 17 4 9 6 197 6 417 -2 377 -1
401 17 414 14 11 45 12 144 7 69 -3 133 -3 142 1 14 5 17 21 17 90 l0 84 -415
0 -415 0 0 -85z"/>
<path d="M13294 3606 c-134 -42 -301 -225 -349 -382 -47 -153 -39 -287 22
-380 64 -98 161 -138 280 -114 84 16 186 63 234 106 51 46 139 198 139 240 0
17 -7 25 -27 30 -33 9 -57 -6 -61 -36 -2 -13 -22 -51 -44 -84 -93 -137 -233
-214 -336 -187 -48 13 -113 81 -133 137 -20 59 -18 210 5 259 70 152 106 203
205 289 59 53 87 66 136 66 25 0 39 -7 55 -27 20 -25 22 -35 15 -103 -14 -142
-13 -145 17 -148 20 -2 31 4 44 22 21 34 35 155 22 205 -13 49 -59 98 -106
111 -47 13 -67 12 -118 -4z"/>
<path d="M5987 3590 c-92 -35 -155 -109 -216 -251 -22 -52 -43 -106 -46 -121
-5 -18 -21 -36 -46 -50 -59 -33 -64 -68 -8 -68 27 0 29 -2 29 -40 0 -57 24
-110 49 -110 20 0 21 6 21 94 0 70 4 98 15 109 22 22 101 29 180 16 39 -6 99
-14 135 -18 36 -4 78 -13 94 -20 26 -10 28 -15 21 -44 -4 -17 -11 -61 -15 -97
-15 -111 -44 -194 -76 -221 -16 -13 -19 -65 -4 -74 6 -4 18 -1 27 6 17 15 100
185 102 209 1 26 20 154 26 186 4 19 16 36 28 41 76 33 117 58 117 69 0 18
-14 18 -51 -2 -17 -8 -42 -14 -57 -12 -29 3 -31 9 -52 143 -20 136 -88 231
-183 260 -37 11 -49 10 -90 -5z m114 -77 c61 -55 90 -125 104 -251 7 -64 -2
-70 -83 -52 -31 7 -115 14 -187 16 -71 2 -131 8 -133 13 -2 5 11 43 28 84 32
78 104 184 142 211 39 27 83 20 129 -21z"/>
<path d="M7045 3596 c-97 -16 -170 -53 -170 -86 0 -20 6 -26 28 -28 16 -2 36
3 46 12 39 35 94 49 187 49 71 -1 103 -6 140 -22 125 -56 187 -150 188 -286
l1 -80 -95 1 c-52 0 -118 4 -146 8 l-51 8 -8 117 c-8 129 -15 151 -49 151 -32
0 -36 -16 -26 -97 20 -156 20 -164 -4 -173 -11 -5 -46 -14 -76 -20 -204 -39
-292 -227 -165 -352 85 -85 327 -102 450 -33 99 56 196 178 224 280 10 37 15
41 68 58 32 11 78 30 102 43 24 13 45 24 47 24 2 0 10 -16 18 -35 21 -50 70
-77 126 -72 39 4 51 12 95 60 l51 56 30 -34 c32 -36 84 -52 129 -41 14 4 44
23 66 43 43 39 43 39 67 -9 44 -87 159 -103 256 -35 23 16 32 18 45 8 57 -41
80 -51 119 -51 38 0 49 6 98 52 l54 51 23 -21 c48 -45 121 -54 174 -22 39 23
88 94 79 115 -10 26 -32 16 -71 -31 -35 -43 -41 -46 -74 -40 -47 7 -82 49 -80
96 2 57 0 60 -30 60 -34 0 -43 -10 -67 -70 -37 -98 -94 -141 -134 -105 -25 22
-26 77 -4 96 10 8 35 19 58 24 31 8 41 15 41 30 0 16 -8 21 -39 23 -57 5 -85
-11 -171 -99 -43 -44 -90 -82 -104 -85 -14 -3 -33 -8 -42 -10 -25 -7 -68 34
-78 74 -5 20 -6 55 -3 77 l7 40 60 8 c70 10 91 23 73 44 -7 9 -27 13 -57 12
-24 -2 -46 1 -48 7 -2 6 5 30 16 55 38 85 -20 78 -64 -8 -22 -42 -38 -59 -60
-66 -42 -14 -43 -15 -11 -41 32 -25 30 -60 -4 -71 -11 -3 -29 -21 -41 -38 -47
-69 -83 -75 -136 -22 -31 31 -34 39 -28 73 7 45 -11 68 -48 58 -22 -5 -67 -79
-67 -109 0 -19 -65 -87 -84 -87 -21 0 -56 36 -56 58 0 32 30 62 76 73 49 13
57 20 48 43 -4 12 -20 16 -54 16 -40 0 -57 -6 -94 -35 -26 -19 -49 -35 -53
-35 -4 0 -33 -18 -66 -41 -35 -25 -71 -42 -90 -43 l-32 -1 -7 67 c-12 123 -61
229 -131 282 -103 78 -229 106 -372 82z m57 -554 c-4 -67 7 -92 39 -92 25 0
39 31 46 97 3 30 11 57 18 59 7 3 63 1 126 -3 108 -8 114 -9 117 -31 4 -27
-53 -123 -113 -190 -29 -32 -65 -58 -107 -77 -85 -38 -149 -43 -237 -16 -56
17 -76 29 -105 63 -29 34 -36 50 -36 85 0 40 5 49 51 93 53 52 118 81 174 77
l30 -2 -3 -63z"/>
<path d="M9771 3594 c-101 -18 -166 -51 -166 -84 0 -35 28 -37 76 -6 126 84
354 47 445 -72 19 -26 38 -59 41 -75 3 -15 10 -30 14 -33 5 -3 9 -43 9 -89 0
-96 1 -95 -97 -95 -94 0 -192 20 -204 41 -5 10 -9 64 -10 121 0 56 -5 110 -10
120 -10 19 -44 24 -54 9 -3 -5 0 -64 6 -131 6 -67 9 -123 7 -125 -2 -3 -37
-11 -76 -20 -142 -29 -217 -90 -242 -195 -11 -45 -10 -54 10 -95 24 -49 49
-70 125 -106 44 -21 64 -24 170 -24 145 1 186 16 275 101 75 71 110 123 135
196 l20 60 66 22 c36 12 83 32 103 44 54 32 62 29 70 -25 7 -50 29 -83 56 -83
25 0 38 20 46 70 8 60 26 100 43 100 8 0 34 -12 59 -26 36 -22 52 -25 90 -20
98 13 95 13 104 -20 5 -19 18 -35 35 -43 16 -8 35 -17 44 -21 29 -15 153 42
165 75 10 25 32 17 49 -19 26 -55 51 -71 108 -70 45 0 54 4 85 39 30 33 41 38
72 37 20 -2 58 7 84 18 60 25 66 25 66 -3 0 -41 50 -76 135 -96 64 -14 136 4
211 53 l54 36 22 -48 c20 -40 28 -47 55 -50 36 -4 34 -7 126 158 37 67 45 75
72 75 26 0 33 -7 70 -79 23 -43 54 -88 69 -99 25 -18 32 -19 65 -7 46 16 58
26 88 74 23 36 24 40 8 55 -15 15 -18 14 -38 -11 -12 -15 -29 -37 -37 -49 -12
-16 -22 -20 -37 -15 -24 8 -66 68 -76 108 -4 15 -22 43 -41 62 -66 71 -136 39
-205 -93 -23 -45 -46 -81 -52 -81 -18 0 -21 30 -10 77 11 42 10 48 -8 66 -22
22 -48 17 -57 -10 -17 -51 -37 -83 -66 -105 -56 -43 -135 -78 -175 -78 -37 0
-103 31 -103 48 0 5 29 12 65 14 74 6 107 24 131 69 28 56 -14 99 -96 99 -44
0 -100 -27 -145 -71 -17 -16 -36 -29 -42 -29 -5 0 -27 -11 -48 -26 -61 -41
-90 -30 -112 41 -8 28 -12 30 -53 30 -45 0 -45 0 -48 -38 -2 -25 2 -45 12 -56
15 -16 14 -20 -9 -45 -14 -15 -33 -26 -42 -24 -22 4 -63 64 -63 93 0 11 -6 29
-13 38 -20 29 -71 5 -99 -46 -28 -50 -82 -83 -120 -74 -25 7 -32 18 -55 92 -5
17 -15 29 -24 28 -7 -1 -49 -10 -91 -20 l-78 -17 -37 36 c-68 64 -100 70 -122
22 -9 -21 -14 -23 -31 -14 -17 9 -30 7 -66 -11 -25 -12 -57 -31 -72 -43 -38
-31 -108 -60 -126 -53 -12 5 -16 22 -16 74 0 48 -8 89 -25 137 -41 112 -90
163 -196 205 -45 18 -167 44 -189 40 -3 -1 -38 -7 -79 -15z m61 -561 c3 -72 5
-78 25 -81 29 -4 53 42 53 103 0 27 5 47 13 50 6 3 64 1 127 -3 l115 -7 -2
-42 c-3 -83 -105 -203 -211 -250 -72 -31 -133 -38 -207 -23 -135 27 -199 104
-164 197 27 72 120 128 216 132 l32 1 3 -77z"/>
<path d="M16165 3348 c-38 -32 -97 -118 -109 -156 -4 -12 -12 -22 -18 -22 -7
0 -8 21 -4 63 8 72 -3 91 -51 85 -20 -2 -29 -9 -31 -25 -4 -30 -111 -133 -138
-133 -45 0 -86 61 -77 115 4 27 1 35 -16 45 -36 19 -54 4 -90 -75 -46 -103
-95 -139 -135 -99 -36 35 -1 114 50 114 50 0 70 51 28 67 -32 12 -107 -17
-145 -55 -19 -20 -52 -46 -72 -57 -46 -24 -68 -14 -80 37 -5 20 -22 49 -38 64
-26 25 -38 29 -87 28 -45 0 -66 -6 -102 -28 -24 -16 -46 -24 -47 -19 -17 51
-57 53 -68 4 -4 -17 -15 -36 -25 -41 -11 -6 -31 -30 -44 -53 -14 -23 -39 -56
-56 -72 l-30 -29 -21 20 c-11 12 -32 52 -45 90 -14 38 -33 77 -41 87 -40 43
-118 3 -179 -92 -21 -34 -43 -60 -47 -58 -5 1 -17 26 -27 56 -23 69 -49 95
-95 94 -36 -1 -125 -46 -125 -63 0 -20 -29 -9 -36 13 -11 34 -27 38 -54 13
-21 -20 -106 -56 -132 -56 -4 0 -8 16 -8 35 0 73 -44 115 -123 115 -63 0 -97
-28 -97 -82 0 -32 7 -47 34 -74 19 -19 41 -34 50 -34 21 0 21 -26 0 -34 -58
-22 -124 18 -124 77 0 18 5 38 10 43 14 14 3 41 -20 47 -53 14 -84 -74 -51
-148 22 -49 44 -68 97 -83 54 -15 128 6 168 47 19 19 43 32 70 36 22 4 57 16
76 27 32 19 35 19 47 2 7 -10 13 -34 13 -54 0 -49 20 -75 52 -67 18 5 32 23
52 67 51 111 114 135 135 52 5 -20 14 -56 21 -79 13 -50 33 -73 65 -73 27 0
48 26 101 126 43 82 52 94 70 94 16 0 24 -17 49 -103 15 -49 23 -61 51 -75 32
-15 37 -14 71 2 51 24 111 73 118 96 8 25 22 26 30 2 3 -11 10 -70 16 -133 16
-188 22 -224 39 -226 39 -7 42 8 24 142 -21 164 -12 213 54 286 36 40 50 49
78 49 23 0 37 -6 44 -19 19 -37 13 -51 -26 -51 -50 0 -104 -42 -104 -82 0 -40
15 -65 50 -83 26 -13 33 -13 73 4 28 12 51 31 64 54 20 32 24 35 84 39 42 3
65 1 68 -6 2 -6 21 -28 43 -48 63 -61 131 -50 202 34 l36 42 33 -31 c53 -49
87 -58 139 -35 23 10 52 29 62 41 11 11 22 21 27 21 4 0 14 -21 23 -46 17 -50
39 -73 72 -74 29 0 56 33 97 120 34 71 78 130 96 130 14 0 31 -26 61 -87 29
-61 69 -108 101 -118 12 -4 37 4 64 20 42 24 46 25 52 8 22 -64 35 -83 63 -98
19 -10 42 -14 56 -11 27 7 33 -14 10 -33 -17 -14 -46 -94 -46 -126 0 -37 39
-104 70 -120 16 -8 47 -15 70 -15 116 0 179 105 180 300 l0 85 55 44 c69 55
77 65 69 85 -9 23 -47 20 -70 -5 -23 -26 -72 -52 -83 -44 -5 2 -19 24 -31 47
-30 58 -59 88 -86 88 -28 0 -36 -14 -68 -115 -24 -76 -57 -125 -83 -125 -19 0
-33 43 -33 103 0 70 -9 81 -56 74 -22 -4 -40 -10 -41 -14 -10 -28 -45 -73 -57
-73 -22 0 -48 31 -90 109 -28 50 -47 73 -72 85 -48 22 -58 21 -99 -16z m663
-381 c2 -60 -2 -86 -18 -121 -32 -71 -91 -89 -129 -40 -43 55 -19 129 65 198
31 25 62 45 68 43 6 -2 12 -36 14 -80z"/>
</g>
</svg>
